<?xml version="1.0" encoding="UTF-8" standalone="no"?>
<svg
   viewBox="0 0 909.01 387.77"
   version="1.1"
   id="svg33"
   sodipodi:docname="logo.svg"
   inkscape:version="1.2.2 (b0a8486541, 2022-12-01)"
   xmlns:inkscape="http://www.inkscape.org/namespaces/inkscape"
   xmlns:sodipodi="http://sodipodi.sourceforge.net/DTD/sodipodi-0.dtd"
   xmlns="http://www.w3.org/2000/svg"
   xmlns:svg="http://www.w3.org/2000/svg">
  <sodipodi:namedview
     id="namedview35"
     pagecolor="#505050"
     bordercolor="#eeeeee"
     borderopacity="1"
     inkscape:showpageshadow="0"
     inkscape:pageopacity="0"
     inkscape:pagecheckerboard="0"
     inkscape:deskcolor="#505050"
     showgrid="false"
     inkscape:zoom="1.3432195"
     inkscape:cx="454.505"
     inkscape:cy="193.93703"
     inkscape:window-width="2044"
     inkscape:window-height="1108"
     inkscape:window-x="1920"
     inkscape:window-y="0"
     inkscape:window-maximized="1"
     inkscape:current-layer="svg33" />
  <defs
     id="defs4">
    <style
       id="style2">.cls-1{fill:#1c007e;}</style>
    <clipPath
       clipPathUnits="userSpaceOnUse"
       id="clipPath291">
      <rect
         style="opacity:0.5;fill:#ffffff"
         id="rect293"
         width="476.99936"
         height="328.68109"
         x="38.058628"
         y="37.636452" />
    </clipPath>
  </defs>
  <g
     id="logo"
     clip-path="url(#clipPath291)">
    <path
       class="cls-1"
       d="M595.44,176.05h-12.5V134.91h-.31L570,176.05h-9.56l-12.65-41.14h-.31v41.14H535.3V118.92h19.52l10.43,36.92h.31L576,118.92h19.45Z"
       id="path6" />
    <path
       class="cls-1"
       d="M607.46,118.92h13.31v57.13H607.46Z"
       id="path8" />
    <path
       class="cls-1"
       d="M660.59,130.25v45.8H647.28v-45.8H629.54V118.92h48.79v11.33Z"
       id="path10" />
    <path
       class="cls-1"
       d="M718.12,136.05c-.85-5.4-4.56-8.41-10.72-8.41-5.44,0-8.9,2.69-8.9,6.35s3.08,4.76,7.25,5.79l9,2.24c8.7,2.25,17.89,4.62,17.89,17.86,0,12.15-10.8,17.45-23.57,17.45-13.71,0-24-6.55-25.45-19L696.77,157c.71,7.37,6,10.19,12.45,10.19,5.67,0,9.87-2.44,9.87-6.78s-3.25-5.55-8.79-7l-8.58-2.26c-7.86-2.1-16.35-4.8-16.35-16.34,0-11.17,9.77-17.14,22.49-17.14,12.49,0,21,6.15,23.11,17.51Z"
       id="path12" />
    <path
       class="cls-1"
       d="M742.08,118.92h13.31v57.13H742.08Z"
       id="path14" />
    <path
       class="cls-1"
       d="M821.1,147.49c0,18.91-11.65,29.84-28,29.84s-28-10.93-28-29.84,11.66-29.85,28-29.85S821.1,128.57,821.1,147.49Zm-13.55,0c0-13.4-6.34-19-14.41-19s-14.42,5.57-14.42,19,6.35,19,14.42,19S807.55,160.88,807.55,147.49Z"
       id="path16" />
    <path
       class="cls-1"
       d="M596.34,268.85H583.68V227.71h-.32l-12.81,41.14h-9.7L548,227.71h-.32v41.14H535.38V211.72h19.79l10.57,36.92h.32l10.57-36.92h19.71Z"
       id="path18" />
    <path
       class="cls-1"
       d="M662.93,240.28c0,18.92-11.81,29.85-28.34,29.85s-28.35-10.93-28.35-29.85,11.82-29.84,28.35-29.84S662.93,221.37,662.93,240.28Zm-13.73,0c0-13.39-6.43-19-14.61-19s-14.62,5.58-14.62,19,6.44,19,14.62,19S649.2,253.68,649.2,240.28Z"
       id="path20" />
    <path
       class="cls-1"
       d="M699.77,223.05v45.8H686.28v-45.8h-18V211.72h49.45v11.33Z"
       id="path22" />
    <path
       class="cls-1"
       d="M776.38,247.8c0,15.11-10.73,22.33-24.85,22.33s-24.85-7.22-24.85-22.33V211.72h13.49v34.82c0,8.79,4,12.64,11.36,12.64s11.36-3.85,11.36-12.64V211.72h13.49Z"
       id="path24" />
    <rect
       class="cls-1"
       x="534.16"
       y="57.12"
       width="317.72"
       height="9.74"
       id="rect26" />
    <rect
       class="cls-1"
       x="534.16"
       y="320.91"
       width="317.72"
       height="9.74"
       id="rect28" />
    <polygon
       class="cls-1"
       points="399.11 57.12 347.6 233.91 346.06 233.91 294.55 57.12 198.11 57.12 198.11 209.99 153.57 57.12 57.12 57.12 57.12 330.65 117.27 330.65 117.27 133.67 118.81 133.67 181.24 330.65 198.11 330.65 205.64 330.65 258.25 330.65 258.25 133.67 259.79 133.67 322.22 330.65 369.47 330.65 431.9 133.67 433.45 133.67 433.45 330.65 495.13 330.65 495.14 57.12 399.11 57.12"
       id="polygon30" />
  </g>
</svg>
