<?xml version="1.0" encoding="UTF-8" standalone="no"?>
<svg
   viewBox="0 0 419276.18 106066.73"
   version="1.1"
   id="svg33"
   sodipodi:docname="mm_standard_vector.svg"
   width="419276.19"
   height="106066.73"
   xmlns:inkscape="http://www.inkscape.org/namespaces/inkscape"
   xmlns:sodipodi="http://sodipodi.sourceforge.net/DTD/sodipodi-0.dtd"
   xmlns="http://www.w3.org/2000/svg"
   xmlns:svg="http://www.w3.org/2000/svg">
  <sodipodi:namedview
     id="namedview35"
     pagecolor="#505050"
     bordercolor="#eeeeee"
     borderopacity="1"
     inkscape:showpageshadow="0"
     inkscape:pageopacity="0"
     inkscape:pagecheckerboard="0"
     inkscape:deskcolor="#505050"
     showgrid="false" />
  <defs
     id="defs4">
    <style
       id="style2">.cls-1{fill:#1c007e;}</style>
    <clipPath
       clipPathUnits="userSpaceOnUse"
       id="clipPath251">
      <rect
         style="opacity:0.5;fill:#ffffff"
         id="rect253"
         width="484.00882"
         height="313.18381"
         x="34.356041"
         y="34.778423" />
    </clipPath>
  </defs>
  <g
     id="logo"
     clip-path="url(#clipPath251)"
     inkscape:export-filename="logo.png"
     inkscape:export-xdpi="96"
     inkscape:export-ydpi="96"
     transform="translate(-51922.649,-22149.421)">
    <path
       class="cls-1"
       d="m 595.44,176.05 h -12.5 v -41.14 h -0.31 L 570,176.05 h -9.56 l -12.65,-41.14 h -0.31 v 41.14 H 535.3 v -57.13 h 19.52 l 10.43,36.92 h 0.31 L 576,118.92 h 19.45 z"
       id="path6" />
    <path
       class="cls-1"
       d="m 607.46,118.92 h 13.31 v 57.13 h -13.31 z"
       id="path8" />
    <path
       class="cls-1"
       d="m 660.59,130.25 v 45.8 h -13.31 v -45.8 h -17.74 v -11.33 h 48.79 v 11.33 z"
       id="path10" />
    <path
       class="cls-1"
       d="m 718.12,136.05 c -0.85,-5.4 -4.56,-8.41 -10.72,-8.41 -5.44,0 -8.9,2.69 -8.9,6.35 0,3.66 3.08,4.76 7.25,5.79 l 9,2.24 c 8.7,2.25 17.89,4.62 17.89,17.86 0,12.15 -10.8,17.45 -23.57,17.45 -13.71,0 -24,-6.55 -25.45,-19 L 696.77,157 c 0.71,7.37 6,10.19 12.45,10.19 5.67,0 9.87,-2.44 9.87,-6.78 0,-4.34 -3.25,-5.55 -8.79,-7 l -8.58,-2.26 c -7.86,-2.1 -16.35,-4.8 -16.35,-16.34 0,-11.17 9.77,-17.14 22.49,-17.14 12.49,0 21,6.15 23.11,17.51 z"
       id="path12" />
    <path
       class="cls-1"
       d="m 742.08,118.92 h 13.31 v 57.13 h -13.31 z"
       id="path14" />
    <path
       class="cls-1"
       d="m 821.1,147.49 c 0,18.91 -11.65,29.84 -28,29.84 -16.35,0 -28,-10.93 -28,-29.84 0,-18.91 11.66,-29.85 28,-29.85 16.34,0 28,10.93 28,29.85 z m -13.55,0 c 0,-13.4 -6.34,-19 -14.41,-19 -8.07,0 -14.42,5.57 -14.42,19 0,13.43 6.35,19 14.42,19 8.07,0 14.41,-5.61 14.41,-19 z"
       id="path16" />
    <path
       class="cls-1"
       d="m 596.34,268.85 h -12.66 v -41.14 h -0.32 l -12.81,41.14 h -9.7 L 548,227.71 h -0.32 v 41.14 h -12.3 v -57.13 h 19.79 l 10.57,36.92 h 0.32 l 10.57,-36.92 h 19.71 z"
       id="path18" />
    <path
       class="cls-1"
       d="m 662.93,240.28 c 0,18.92 -11.81,29.85 -28.34,29.85 -16.53,0 -28.35,-10.93 -28.35,-29.85 0,-18.92 11.82,-29.84 28.35,-29.84 16.53,0 28.34,10.93 28.34,29.84 z m -13.73,0 c 0,-13.39 -6.43,-19 -14.61,-19 -8.18,0 -14.62,5.58 -14.62,19 0,13.42 6.44,19 14.62,19 8.18,0 14.61,-5.6 14.61,-19 z"
       id="path20" />
    <path
       class="cls-1"
       d="m 699.77,223.05 v 45.8 h -13.49 v -45.8 h -18 v -11.33 h 49.45 v 11.33 z"
       id="path22" />
    <path
       class="cls-1"
       d="m 776.38,247.8 c 0,15.11 -10.73,22.33 -24.85,22.33 -14.12,0 -24.85,-7.22 -24.85,-22.33 v -36.08 h 13.49 v 34.82 c 0,8.79 4,12.64 11.36,12.64 7.36,0 11.36,-3.85 11.36,-12.64 v -34.82 h 13.49 z"
       id="path24" />
    <rect
       class="cls-1"
       x="534.15997"
       y="57.119999"
       width="317.72"
       height="9.7399998"
       id="rect26" />
    <rect
       class="cls-1"
       x="534.15997"
       y="320.91"
       width="317.72"
       height="9.7399998"
       id="rect28" />
    <polygon
       class="cls-1"
       points="198.11,57.12 198.11,209.99 153.57,57.12 57.12,57.12 57.12,330.65 117.27,330.65 117.27,133.67 118.81,133.67 181.24,330.65 198.11,330.65 205.64,330.65 258.25,330.65 258.25,133.67 259.79,133.67 322.22,330.65 369.47,330.65 431.9,133.67 433.45,133.67 433.45,330.65 495.13,330.65 495.14,57.12 399.11,57.12 347.6,233.91 346.06,233.91 294.55,57.12 "
       id="polygon30" />
  </g>
</svg>
